<svg xmlns="http://www.w3.org/2000/svg" version="1.1" xmlns:xlink="http://www.w3.org/1999/xlink" xmlns:svgjs="http://svgjs.dev/svgjs" viewBox="0 0 800 800"><defs><linearGradient x1="50%" y1="0%" x2="50%" y2="100%" id="nnneon-grad"><stop stop-color="hsl(157, 100%, 54%)" stop-opacity="1" offset="0%"></stop><stop stop-color="hsl(331, 87%, 61%)" stop-opacity="1" offset="100%"></stop></linearGradient><filter id="nnneon-filter" x="-100%" y="-100%" width="400%" height="400%" filterUnits="objectBoundingBox" primitiveUnits="userSpaceOnUse" color-interpolation-filters="sRGB">
	<feGaussianBlur stdDeviation="17 8" x="0%" y="0%" width="100%" height="100%" in="SourceGraphic" edgeMode="none" result="blur"></feGaussianBlur></filter><filter id="nnneon-filter2" x="-100%" y="-100%" width="400%" height="400%" filterUnits="objectBoundingBox" primitiveUnits="userSpaceOnUse" color-interpolation-filters="sRGB">
	<feGaussianBlur stdDeviation="10 17" x="0%" y="0%" width="100%" height="100%" in="SourceGraphic" edgeMode="none" result="blur"></feGaussianBlur></filter></defs><g stroke-width="16" stroke="url(#nnneon-grad)" fill="none"><path d="M377.52189137955224 75.80454168118246C391.43136387816253 67.77535038107959 408.5686971569937 67.77535038107959 422.478169655604 75.80678949509627L669.5219100381638 218.43732576761192C683.4313825367742 226.4665170677148 692.0000491761897 241.3088323405533 692.0000491761897 257.3694627546729V542.6305352997042C692.0000491761897 558.6911657138237 683.4313825367742 573.5334809866622 669.5219100381638 581.5649201006788L422.478169655604 724.1954563731945C408.5686971569937 732.2246476732973 391.43136387816253 732.2246476732973 377.52189137955224 724.1932085592807L130.47815099699244 581.5626722867651C116.56867849838204 573.5334809866622 108.00001185896656 558.6911657138237 108.00001185896656 542.6305352997042V257.3694627546729C108.00001185896656 241.3088323405533 116.56867849838204 226.4665170677148 130.47815099699244 218.43507795369817L377.52189137955224 75.80454168118246Z " filter="url(#nnneon-filter)"></path><path d="M389.52189137955224 75.80454168118246C403.43136387816253 67.77535038107959 420.5686971569937 67.77535038107959 434.478169655604 75.80678949509627L681.5219100381638 218.43732576761192C695.4313825367742 226.4665170677148 704.0000491761897 241.3088323405533 704.0000491761897 257.3694627546729V542.6305352997042C704.0000491761897 558.6911657138237 695.4313825367742 573.5334809866622 681.5219100381638 581.5649201006788L434.478169655604 724.1954563731945C420.5686971569937 732.2246476732973 403.43136387816253 732.2246476732973 389.52189137955224 724.1932085592807L142.47815099699244 581.5626722867651C128.56867849838204 573.5334809866622 120.00001185896656 558.6911657138237 120.00001185896656 542.6305352997042V257.3694627546729C120.00001185896656 241.3088323405533 128.56867849838204 226.4665170677148 142.47815099699244 218.43507795369817L389.52189137955224 75.80454168118246Z " filter="url(#nnneon-filter2)" opacity="0.25"></path><path d="M365.52189137955224 75.80454168118246C379.43136387816253 67.77535038107959 396.5686971569937 67.77535038107959 410.478169655604 75.80678949509627L657.5219100381638 218.43732576761192C671.4313825367742 226.4665170677148 680.0000491761897 241.3088323405533 680.0000491761897 257.3694627546729V542.6305352997042C680.0000491761897 558.6911657138237 671.4313825367742 573.5334809866622 657.5219100381638 581.5649201006788L410.478169655604 724.1954563731945C396.5686971569937 732.2246476732973 379.43136387816253 732.2246476732973 365.52189137955224 724.1932085592807L118.47815099699244 581.5626722867651C104.56867849838204 573.5334809866622 96.00001185896656 558.6911657138237 96.00001185896656 542.6305352997042V257.3694627546729C96.00001185896656 241.3088323405533 104.56867849838204 226.4665170677148 118.47815099699244 218.43507795369817L365.52189137955224 75.80454168118246Z " filter="url(#nnneon-filter2)" opacity="0.25"></path><path d="M377.52189137955224 75.80454168118246C391.43136387816253 67.77535038107959 408.5686971569937 67.77535038107959 422.478169655604 75.80678949509627L669.5219100381638 218.43732576761192C683.4313825367742 226.4665170677148 692.0000491761897 241.3088323405533 692.0000491761897 257.3694627546729V542.6305352997042C692.0000491761897 558.6911657138237 683.4313825367742 573.5334809866622 669.5219100381638 581.5649201006788L422.478169655604 724.1954563731945C408.5686971569937 732.2246476732973 391.43136387816253 732.2246476732973 377.52189137955224 724.1932085592807L130.47815099699244 581.5626722867651C116.56867849838204 573.5334809866622 108.00001185896656 558.6911657138237 108.00001185896656 542.6305352997042V257.3694627546729C108.00001185896656 241.3088323405533 116.56867849838204 226.4665170677148 130.47815099699244 218.43507795369817L377.52189137955224 75.80454168118246Z "></path></g></svg>